<?xml version="1.0" encoding="UTF-8"?>
<svg class="gb-rings" viewBox="0 0 100 100" width="200" height="200"><path d="M45.20 50.00 A4.80 4.80 0 0 1 50.00 45.20" fill="none" stroke="#32487D" stroke-width="0.8"/><path d="M40.40 50.00 A9.60 9.60 0 0 1 50.00 40.40" fill="none" stroke="#32487D" stroke-width="0.8"/><path d="M35.60 50.00 A14.40 14.40 0 0 1 50.00 35.60" fill="none" stroke="#32487D" stroke-width="0.8"/><path d="M30.80 50.00 A19.20 19.20 0 0 1 50.00 30.80" fill="none" stroke="#32487D" stroke-width="0.8"/><path d="M26.00 50.00 A24.00 24.00 0 0 1 50.00 26.00" fill="none" stroke="#32487D" stroke-width="0.8"/><path d="M21.20 50.00 A28.80 28.80 0 0 1 50.00 21.20" fill="none" stroke="#32487D" stroke-width="0.8"/><path d="M16.40 50.00 A33.60 33.60 0 0 1 50.00 16.40" fill="none" stroke="#32487D" stroke-width="0.8"/><path d="M11.60 50.00 A38.40 38.40 0 0 1 50.00 11.60" fill="none" stroke="#32487D" stroke-width="0.8"/><path d="M6.80 50.00 A43.20 43.20 0 0 1 50.00 6.80" fill="none" stroke="#32487D" stroke-width="0.8"/><path d="M2.00 50.00 A48.00 48.00 0 0 1 50.00 2.00" fill="none" stroke="#32487D" stroke-width="0.8"/></svg>
